<svg width="82" height="33" viewBox="0 0 82 33" fill="none" xmlns="http://www.w3.org/2000/svg">
<path d="M14.2617 20.9434V11.5853C14.2432 11.289 14.095 11.1408 13.8172 11.1408H0V7.57536H13.8125C14.0348 7.57536 14.1644 7.55684 14.2015 7.51979C14.2385 7.48275 14.257 7.3531 14.257 7.13084V4.00994C14.257 3.73211 14.1089 3.58394 13.8125 3.56542H0V0H13.368C13.6644 0 13.9098 0.0231521 14.1042 0.0694562C14.2987 0.11576 14.4978 0.240782 14.7016 0.44452L17.3733 3.11627C17.5771 3.32001 17.7021 3.51912 17.7484 3.71359C17.7947 3.90807 17.8178 4.15348 17.8178 4.44983V4.89435C17.8178 5.19069 17.7669 5.46389 17.665 5.71393C17.5632 5.96397 17.3177 6.28347 16.9288 6.67706L14.257 8.90429C14.1274 9.03394 14.0626 9.17285 14.0626 9.32102C14.0626 9.48772 14.1274 9.64515 14.257 9.79333L16.9288 12.0206C17.3177 12.4095 17.5632 12.729 17.665 12.9837C17.7669 13.2337 17.8178 13.5069 17.8178 13.8033V18.7069C17.8178 19.1699 17.7021 19.6005 17.4706 20.0034C17.239 20.4016 16.9103 20.7118 16.4796 20.9341L8.01062 24.4995C7.45497 24.7773 6.85764 24.9255 6.22791 24.944H0V21.3786H13.8125C14.1089 21.3601 14.257 21.2119 14.257 20.9341L14.2617 20.9434Z" fill="#FDFDFD"/>
<path d="M35.4963 7.20007C35.6908 7.24638 35.8899 7.3714 36.0936 7.57514L38.7654 10.2469C38.9691 10.4506 39.0941 10.6497 39.1404 10.8442C39.1868 11.0387 39.2099 11.2841 39.2099 11.5804V18.7113C39.2099 19.1743 39.0941 19.6049 38.8626 20.0078C38.6311 20.406 38.3023 20.7163 37.8717 20.9385L29.4027 24.5039C28.847 24.7818 28.2497 24.9299 27.62 24.9485H25.3928C25.0964 24.967 24.9482 25.1151 24.9482 25.393V32.0793H21.3828V7.13062H34.7508C35.0472 7.13062 35.2926 7.15377 35.4871 7.20007H35.4963ZM25.402 21.3923H35.2046C35.4824 21.3923 35.6306 21.2441 35.6491 20.9478V11.1452C35.6491 10.8674 35.5009 10.7192 35.2046 10.7007H25.402C25.1057 10.7192 24.9575 10.8674 24.9575 11.1452V20.9478C24.976 21.2441 25.1242 21.3923 25.402 21.3923Z" fill="#FDFDFD"/>
<path d="M46.3467 0V6.68632C46.3467 6.98266 46.4948 7.13084 46.7912 7.13084H60.6037V10.6963H46.7912C46.4948 10.6963 46.3467 10.8444 46.3467 11.1408V20.9434C46.3652 21.2397 46.5134 21.3879 46.7912 21.3879H60.6037V24.9533H54.3665C53.7368 24.9348 53.1395 24.7866 52.5838 24.5088L44.1148 20.9434C43.6888 20.7211 43.3601 20.4109 43.1285 20.0126C42.897 19.6144 42.7812 19.1838 42.7812 18.7161V0H46.3467Z" fill="#FDFDFD"/>
<path d="M67.8643 14.1367C67.9476 14.22 68.0541 14.2617 68.1838 14.2617H77.5418C77.8382 14.2617 78.0836 14.2848 78.2781 14.3311C78.4725 14.3774 78.6717 14.5025 78.8754 14.7062L81.5471 17.3779C81.7509 17.5817 81.8759 17.7715 81.9222 17.9475C81.9685 18.1234 81.9917 18.3781 81.9917 18.7115V20.4942C81.9917 20.7906 81.9685 21.036 81.9222 21.2305C81.8759 21.4249 81.7509 21.624 81.5471 21.8278L78.8754 24.4995C78.6717 24.7033 78.4725 24.8283 78.2781 24.8746C78.0836 24.9209 77.8382 24.944 77.5418 24.944H64.1738V21.3786H77.9864C78.2642 21.3786 78.4124 21.2305 78.4309 20.9341V18.2624C78.4309 17.9845 78.2827 17.8364 77.9864 17.8178H68.6283C68.3319 17.8178 68.0865 17.7947 67.892 17.7484C67.6976 17.7021 67.4985 17.5771 67.2947 17.3733L64.623 14.7016C64.3452 14.4237 64.197 13.9792 64.1785 13.3634C64.1785 12.8818 64.2942 12.4419 64.5257 12.053C64.7573 11.664 65.086 11.3584 65.512 11.1315L73.981 7.5661C74.5367 7.28828 75.134 7.1401 75.7638 7.12158H82.0009V10.687H68.1884C68.0587 10.687 67.9523 10.7287 67.8689 10.812C67.7856 10.8954 67.7439 11.0019 67.7439 11.1315V13.8033C67.7439 13.9329 67.7856 14.0394 67.8689 14.1228L67.8643 14.1367Z" fill="#FDFDFD"/>
</svg>
